<svg xmlns="http://www.w3.org/2000/svg" viewBox="0 0 64 64" id="rank"><path d="M44.38 14.08a1 1 0 0 0-1.09.21l-1 1a1 1 0 0 0 0 1.42A1 1 0 0 0 43 17v5a1 1 0 0 0 2 0v-7a1 1 0 0 0-.62-.92ZM33 32a3 3 0 1 0-3-3 1 1 0 0 0 1 1 1 1 0 0 0 1-1 1 1 0 1 1 1 1c-2.37 0-3 2.62-3 4a1 1 0 0 0 1 1h4a1 1 0 0 0 0-2h-2.86c.14-.5.39-1 .86-1Zm-9.12 6.53A1 1 0 0 0 23 38h-4a1 1 0 0 0 0 2h2.13l-1 1.45a1 1 0 0 0-.05 1A1 1 0 0 0 21 43a1 1 0 1 1 0 2 .92.92 0 0 1-1-1 1 1 0 0 0-2 0 3 3 0 0 0 6 0 3.07 3.07 0 0 0-1.4-2.59l1.23-1.86a1 1 0 0 0 .05-1.02ZM54 48.08h-3a.24.24 0 0 0 0-.08V12a1 1 0 0 0-1-1H38a1 1 0 0 0-1 1v11H26a1 1 0 0 0-1 1v11H14a1 1 0 0 0-1 1v12a.24.24 0 0 0 0 .08h-3a1 1 0 0 0 0 2h44a1 1 0 0 0 0-2Zm-39 0a.24.24 0 0 0 0-.08V37h11a1 1 0 0 0 1-1V25h11a1 1 0 0 0 1-1V13h10v35a.24.24 0 0 0 0 .08Zm29.4-34a1 1 0 0 0-1.09.21l-1 1a1 1 0 0 0 0 1.42A1 1 0 0 0 43 17v5a1 1 0 0 0 2 0v-7a1 1 0 0 0-.62-.92ZM33 32a3 3 0 1 0-3-3 1 1 0 0 0 1 1 1 1 0 0 0 1-1 1 1 0 1 1 1 1c-2.37 0-3 2.62-3 4a1 1 0 0 0 1 1h4a1 1 0 0 0 0-2h-2.86c.14-.5.39-1 .86-1Zm-9.12 6.53A1 1 0 0 0 23 38h-4a1 1 0 0 0 0 2h2.13l-1 1.45a1 1 0 0 0-.05 1A1 1 0 0 0 21 43a1 1 0 1 1 0 2 .92.92 0 0 1-1-1 1 1 0 0 0-2 0 3 3 0 0 0 6 0 3.07 3.07 0 0 0-1.4-2.59l1.23-1.86a1 1 0 0 0 .05-1.02Zm-1.28 2.88 1.23-1.86a1 1 0 0 0 .05-1A1 1 0 0 0 23 38h-4a1 1 0 0 0 0 2h2.13l-1 1.45a1 1 0 0 0-.05 1A1 1 0 0 0 21 43a1 1 0 1 1 0 2 .92.92 0 0 1-1-1 1 1 0 0 0-2 0 3 3 0 0 0 6 0 3.07 3.07 0 0 0-1.4-2.59ZM35 33h-2.86c.14-.5.39-1 .86-1a3 3 0 1 0-3-3 1 1 0 0 0 1 1 1 1 0 0 0 1-1 1 1 0 1 1 1 1c-2.37 0-3 2.62-3 4a1 1 0 0 0 1 1h4a1 1 0 0 0 0-2Zm9.38-18.92a1 1 0 0 0-1.09.21l-1 1a1 1 0 0 0 0 1.42A1 1 0 0 0 43 17v5a1 1 0 0 0 2 0v-7a1 1 0 0 0-.62-.92Z"></path><path fill="#708ac4" d="M49 48V13H39v11a1 1 0 0 1-1 1H27v11a1 1 0 0 1-1 1H15v11a.24.24 0 0 1 0 .08h34a.24.24 0 0 1 0-.08Zm-25-4a3 3 0 0 1-6 0 1 1 0 0 1 2 0 1 1 0 1 0 2 0 .91.91 0 0 0-1-1 1 1 0 0 1-.88-.53 1 1 0 0 1 .05-1l1-1.45H19a1 1 0 0 1 0-2h4a1 1 0 0 1 .88.53 1 1 0 0 1-.05 1l-1.23 1.86A3.07 3.07 0 0 1 24 44Zm11-11a1 1 0 0 1 0 2h-4a1 1 0 0 1-1-1c0-1.38.63-4 3-4a1 1 0 1 0-1-1 1 1 0 0 1-1 1 1 1 0 0 1-1-1 3 3 0 1 1 3 3c-.47 0-.72.5-.86 1Zm10-11a1 1 0 0 1-2 0v-5a1 1 0 0 1-.71-.29 1 1 0 0 1 0-1.42l1-1a1 1 0 0 1 1.09-.21A1 1 0 0 1 45 15Z"></path></svg>